HIERARCHY
ROOT SpineBase
{
  OFFSET 0.000000 0.000000 0.000000
  CHANNELS 6 Xposition Yposition Zposition Zrotation Xrotation Yrotation
  JOINT SpineMid
  {
    OFFSET 0.000000 28.543508 -0.000000
    CHANNELS 3 Zrotation Xrotation Yrotation
    JOINT SpineShoulder
    {
      OFFSET 0.360260 21.039435 -0.824945
      CHANNELS 3 Zrotation Xrotation Yrotation
      JOINT Neck
      {
        OFFSET 0.110125 6.998786 -0.655381
        CHANNELS 3 Zrotation Xrotation Yrotation
        JOINT Head
        {
          OFFSET -2.975085 10.149013 3.102395
          CHANNELS 3 Zrotation Xrotation Yrotation
          End Site
          {
            OFFSET 0 0 0
          }
        }
      }
      JOINT ShoulderLeft
      {
        OFFSET -8.659602 -1.267157 22.856137
        CHANNELS 3 Zrotation Xrotation Yrotation
        JOINT ElbowLeft
        {
          OFFSET -3.904192 -27.868897 5.216214
          CHANNELS 3 Zrotation Xrotation Yrotation
          JOINT WristLeft
          {
            OFFSET 9.769780 -11.192277 -25.876001
            CHANNELS 3 Zrotation Xrotation Yrotation
            JOINT HandLeft
            {
              OFFSET -6.523047 -1.136459 -5.887900
              CHANNELS 3 Zrotation Xrotation Yrotation
              JOINT HandTipLeft
              {
                OFFSET 2.006975 -2.260091 -3.048113
                CHANNELS 3 Zrotation Xrotation Yrotation
                End Site
                {
                  OFFSET 0 0 0
                }
              }
              JOINT ThumbLeft
              {
                OFFSET 0.569485 3.580857 -3.043623
                CHANNELS 3 Zrotation Xrotation Yrotation
                End Site
                {
                  OFFSET 0 0 0
                }
              }
            }
          }
        }
      }
      JOINT ShoulderRight
      {
        OFFSET 2.772859 -4.627387 -13.289915
        CHANNELS 3 Zrotation Xrotation Yrotation
        JOINT ElbowRight
        {
          OFFSET 4.260239 -21.668810 -8.467025
          CHANNELS 3 Zrotation Xrotation Yrotation
          JOINT WristRight
          {
            OFFSET -1.117554 -24.386697 -3.621448
            CHANNELS 3 Zrotation Xrotation Yrotation
            JOINT HandRight
            {
              OFFSET -0.556305 -8.283785 0.835160
              CHANNELS 3 Zrotation Xrotation Yrotation
              JOINT HandTipRight
              {
                OFFSET -0.583292 -6.662965 -1.047647
                CHANNELS 3 Zrotation Xrotation Yrotation
                End Site
                {
                  OFFSET 0 0 0
                }
              }
              JOINT ThumbRight
              {
                OFFSET -1.334266 -1.849438 -5.268717
                CHANNELS 3 Zrotation Xrotation Yrotation
                End Site
                {
                  OFFSET 0 0 0
                }
              }
            }
          }
        }
      }
    }
  }
  JOINT HipLeft
  {
    OFFSET -1.971575 0.302889 0.166032
    CHANNELS 3 Zrotation Xrotation Yrotation
    JOINT KneeLeft
    {
      OFFSET -1.530927 -28.205172 -8.965054
      CHANNELS 3 Zrotation Xrotation Yrotation
      JOINT AnkleLeft
      {
        OFFSET 5.297478 -33.601105 21.713507
        CHANNELS 3 Zrotation Xrotation Yrotation
        JOINT FootLeft
        {
          OFFSET -10.429829 -3.202752 -7.027550
          CHANNELS 3 Zrotation Xrotation Yrotation
          End Site
          {
            OFFSET 0 0 0
          }
        }
      }
    }
  }
  JOINT HipRight
  {
    OFFSET 2.341594 0.748716 -7.090167
    CHANNELS 3 Zrotation Xrotation Yrotation
    JOINT KneeRight
    {
      OFFSET 6.175120 -35.431595 -2.464957
      CHANNELS 3 Zrotation Xrotation Yrotation
      JOINT AnkleRight
      {
        OFFSET 5.279801 -31.313898 0.711277
        CHANNELS 3 Zrotation Xrotation Yrotation
        JOINT FootRight
        {
          OFFSET -3.779611 -7.323533 -4.046634
          CHANNELS 3 Zrotation Xrotation Yrotation
          End Site
          {
            OFFSET 0 0 0
          }
        }
      }
    }
  }
}
MOTION
Frames: 11
Frame Time: 0.033333
17.621693 73.564584 289.867044 -1.672272 -5.112214 53.731532 0.980383 -1.847053 -53.778735 0.078166 0.370598 0.010423 3.372162 1.845099 -2.442019 0.000000 0.000000 0.000000 -0.472711 5.041614 -0.103254 -0.000000 0.000000 0.000000 13.925988 -19.941090 -66.062021 -42.528887 -13.992999 95.918423 0.000000 0.000000 0.000000 0.000000 0.000000 0.000000 -14.516220 -1.271748 4.854620 0.508528 -5.506766 -2.673488 13.164822 7.272120 -3.541290 -18.964385 3.104765 4.002077 0.000000 0.000000 0.000000 0.000000 0.000000 0.000000 -28.275748 -21.418271 -57.592447 7.937887 58.768313 -2.590059 6.883395 -27.842959 3.367306 0.000000 0.000000 0.000000 7.310981 3.734665 -53.437889 1.915240 -3.147136 -0.441609 2.690402 -0.790950 -1.904052 0.000000 0.000000 0.000000
17.202422 73.014083 290.175658 -2.618950 -7.466351 52.031273 1.065233 -2.152924 -52.220307 0.084842 0.569041 -0.030669 5.037696 0.875525 -3.874870 0.000000 0.000000 0.000000 0.172354 7.375623 -0.111862 -0.000000 0.000000 0.000000 15.143421 -24.306222 -66.493497 -52.655841 -13.014751 100.873890 0.000000 0.000000 0.000000 0.000000 0.000000 0.000000 -12.357317 0.926148 4.636054 -2.237906 -6.018985 -1.779586 10.846027 7.898099 -3.705631 -16.209594 2.244243 4.402690 0.000000 0.000000 0.000000 0.000000 0.000000 0.000000 -24.141752 -21.804080 -55.974013 8.573516 58.729603 -2.174489 15.266086 -34.084217 9.581264 0.000000 0.000000 0.000000 9.981610 4.364439 -51.980833 1.334761 -3.166906 -0.439195 2.840836 -0.399286 -2.160199 0.000000 0.000000 0.000000
16.892465 72.496464 290.431911 -3.486702 -9.920819 51.191683 1.083166 -2.267137 -51.561969 0.152944 0.845669 -0.075466 6.163330 -0.635133 -5.280439 0.000000 0.000000 0.000000 0.857914 9.641906 -0.145258 -0.000000 0.000000 0.000000 17.068814 -30.624274 -66.251539 -60.328746 -14.354070 104.404607 0.000000 0.000000 0.000000 0.000000 0.000000 0.000000 -10.714706 2.807887 4.474392 -4.061118 -6.607165 -1.136578 8.978389 8.926850 -3.792140 -14.871333 -0.231101 4.678722 0.000000 0.000000 0.000000 0.000000 0.000000 0.000000 -22.715718 -22.724031 -55.656088 12.046074 62.488156 -3.907788 37.301028 -42.935194 31.017949 0.000000 0.000000 0.000000 12.356528 4.883412 -51.514120 0.638124 -2.663361 -0.373945 3.031362 -0.207281 -2.280766 0.000000 0.000000 0.000000
17.173273 72.415432 289.990851 -3.508606 -11.489983 50.476579 0.493193 -2.026779 -50.886937 0.086023 0.951234 -0.106343 6.474564 -2.919272 -6.488061 0.000000 0.000000 0.000000 1.506993 11.440822 -0.192307 -0.000000 0.000000 0.000000 20.150416 -38.689390 -64.355446 -67.411768 -14.293008 105.051535 0.000000 0.000000 0.000000 0.000000 0.000000 0.000000 -9.720878 3.776221 4.352486 -4.683477 -6.465452 -0.669442 7.489910 9.446360 -3.737273 -12.588499 -2.133432 4.573135 0.000000 0.000000 0.000000 0.000000 0.000000 0.000000 -19.034679 -22.065280 -54.741074 7.797347 60.087384 -1.008114 49.399643 -42.461165 40.289344 0.000000 0.000000 0.000000 12.030629 5.657878 -51.089194 1.198019 -1.121299 -0.172978 3.052230 -0.505214 -2.155651 0.000000 0.000000 0.000000
17.575694 72.318259 289.145997 -3.465626 -12.366000 49.234631 0.033568 -1.759409 -49.639631 0.015103 0.986897 -0.127962 6.033175 -5.629928 -7.342849 0.000000 0.000000 0.000000 2.057309 12.498650 -0.232539 -0.000000 0.000000 0.000000 24.363632 -46.725692 -60.832388 -68.146470 -17.643454 104.538700 0.000000 0.000000 0.000000 0.000000 0.000000 0.000000 -8.754863 4.274532 4.115548 -4.782039 -6.267238 -0.325509 6.504605 8.281354 -3.614836 -9.760584 -1.826347 4.418447 0.000000 0.000000 0.000000 0.000000 0.000000 0.000000 -13.646409 -19.794140 -52.662542 2.665256 52.480837 1.865430 44.318990 -39.835939 29.216567 0.000000 0.000000 0.000000 10.768513 6.071190 -50.036700 2.020491 0.622451 0.041125 2.897177 -1.125497 -1.797974 0.000000 0.000000 0.000000
17.721042 72.144426 288.359535 -3.888254 -13.064430 48.298538 0.394102 -1.375841 -48.772245 0.075401 0.717166 -0.153529 4.697186 -8.510278 -7.814850 0.000000 0.000000 0.000000 2.476118 12.966195 -0.257239 -0.000000 0.000000 0.000000 29.074013 -52.951449 -56.370441 -54.747540 -25.271852 99.174627 0.000000 0.000000 0.000000 0.000000 0.000000 0.000000 -8.191558 4.162086 3.928227 -4.087501 -5.666651 -0.170870 6.175797 7.756883 -3.446529 -5.980478 -0.692002 3.636373 0.000000 0.000000 0.000000 0.000000 0.000000 0.000000 -9.279177 -17.650623 -51.210030 0.818868 45.890574 2.633843 34.778632 -35.939202 17.150427 0.000000 0.000000 0.000000 9.833114 5.734163 -49.325008 2.751085 2.345658 0.244857 2.526940 -1.802396 -1.344840 0.000000 0.000000 0.000000
17.828744 72.102817 287.513840 -4.338242 -13.091716 47.408976 0.945482 -1.003010 -47.944685 0.049029 0.051772 -0.174609 2.398384 -11.100210 -7.818380 0.000000 0.000000 0.000000 2.859159 13.022062 -0.267342 -0.000000 0.000000 0.000000 30.807663 -54.726762 -54.647208 -28.975465 -36.569429 88.862355 0.000000 0.000000 0.000000 0.000000 0.000000 0.000000 -7.901953 3.574509 3.799039 -2.740227 -4.544472 -0.176909 5.698620 8.206273 -3.172882 -3.416653 -2.809585 2.858722 0.000000 0.000000 0.000000 0.000000 0.000000 0.000000 -6.394516 -16.047490 -49.962930 -0.298130 40.511106 2.686536 23.855082 -29.456120 6.095077 0.000000 0.000000 0.000000 8.714923 5.064464 -48.576562 3.522477 3.452582 0.335552 2.063400 -2.465124 -0.707705 0.000000 0.000000 0.000000
17.895237 72.174144 286.646305 -4.793181 -12.916390 46.678538 0.813011 -1.104158 -47.281159 0.123005 0.169319 -0.199538 1.587988 -12.310271 -7.835806 0.000000 0.000000 0.000000 3.246582 12.915638 -0.270560 -0.000000 0.000000 0.000000 30.835425 -58.288798 -58.027279 -15.318523 -42.008341 93.290560 0.000000 0.000000 0.000000 0.000000 0.000000 0.000000 -7.406259 3.023648 3.587856 -1.913205 -3.680892 -0.122152 5.142910 8.424579 -2.955731 -1.197419 -3.769001 2.369546 0.000000 0.000000 0.000000 0.000000 0.000000 0.000000 -2.904320 -14.393378 -49.088557 -1.911971 33.846299 2.834705 21.180111 -24.670601 2.893785 0.000000 0.000000 0.000000 7.862284 4.309627 -47.968334 4.077765 3.971153 0.343890 1.693422 -2.828764 -0.093827 0.000000 0.000000 0.000000
17.934383 72.338770 285.892055 -5.205139 -12.487249 46.111057 0.733735 -1.208036 -46.764912 0.157133 0.254492 -0.218647 1.764115 -11.866527 -7.479985 0.000000 0.000000 0.000000 3.598030 12.547334 -0.259670 -0.000000 0.000000 0.000000 27.867402 -57.641898 -63.065644 -9.452269 -42.258862 96.803255 0.000000 0.000000 0.000000 0.000000 0.000000 0.000000 -6.944285 2.501413 3.426145 -1.131372 -3.195933 -0.177614 3.721203 9.840475 -2.669173 0.773873 -4.706778 2.166790 0.000000 0.000000 0.000000 0.000000 0.000000 0.000000 -1.373058 -13.963299 -48.521935 -2.672896 30.463352 2.739145 18.889778 -21.412655 2.004258 0.000000 0.000000 0.000000 7.366024 3.560351 -47.467510 4.310183 3.790290 0.282475 1.418471 -3.047556 0.569838 0.000000 0.000000 0.000000
17.990570 72.533586 285.267836 -5.564360 -12.121032 45.726250 0.737349 -1.228471 -46.419772 0.149518 0.189788 -0.236486 2.684213 -11.127654 -7.292869 0.000000 0.000000 0.000000 3.944642 12.270256 -0.251120 -0.000000 0.000000 0.000000 25.289183 -54.302030 -65.563164 -10.450041 -41.186855 101.600876 0.000000 0.000000 0.000000 0.000000 0.000000 0.000000 -6.351113 2.259602 3.258170 -0.957654 -2.734335 -0.120111 2.002183 11.420777 -2.413992 1.566385 -3.988974 2.308329 0.000000 0.000000 0.000000 0.000000 0.000000 0.000000 -1.528698 -14.587314 -48.216206 -2.583964 29.853753 2.553128 19.402458 -20.962637 4.304954 0.000000 0.000000 0.000000 7.549508 3.039341 -47.105515 4.085503 2.906686 0.173459 1.332446 -2.616396 0.924645 0.000000 0.000000 0.000000
18.018052 72.602555 284.788292 -5.938831 -11.941076 45.746457 0.766139 -1.176759 -46.483785 0.160875 0.226233 -0.255560 3.218734 -10.836635 -7.139484 0.000000 0.000000 0.000000 4.318212 12.001149 -0.241615 -0.000000 0.000000 0.000000 25.628232 -53.554659 -64.232699 -11.564904 -41.288610 100.491806 0.000000 0.000000 0.000000 0.000000 0.000000 0.000000 -5.528725 2.177487 3.026656 -1.359227 -2.527400 0.064911 0.010523 12.396020 -2.169953 3.961685 -5.529834 2.481358 0.000000 0.000000 0.000000 0.000000 0.000000 0.000000 -3.529896 -16.193473 -48.418078 -1.414698 32.332270 2.170386 26.032921 -24.598517 14.133734 0.000000 0.000000 0.000000 7.780616 2.501855 -47.179321 3.685984 2.184970 0.089211 1.356606 -1.675692 1.030159 0.000000 0.000000 0.000000
